<svg width="100" xmlns="http://www.w3.org/2000/svg" height="100" fill="none"><defs><clipPath id="a" class="frame-clip frame-clip-def"><rect rx="0" ry="0" width="100" height="100" transform="matrix(1.000000, 0.000000, 0.000000, 1.000000, 0.000000, 0.000000)"/></clipPath></defs><g clip-path="url(#a)" opacity=".8"><g class="fills"><rect rx="0" ry="0" width="100" height="100" transform="matrix(1.000000, 0.000000, 0.000000, 1.000000, 0.000000, 0.000000)" class="frame-background"/></g><g class="frame-children"><rect rx="10" ry="10" x="39" y="51.5" transform="matrix(0.474938, 0.880019, -0.915053, 0.403334, 95.655396, -29.306493)" width="72" height="20" style="fill: rgb(132, 111, 93); fill-opacity: 1;" class="fills"/><rect rx="10" ry="10" x="50.03" y="59.611" transform="matrix(-0.762044, 0.647526, -0.584770, -0.811199, 155.292167, 83.970429)" width="30" height="20" style="fill: rgb(132, 111, 93); fill-opacity: 1;" class="fills"/><rect rx="10" ry="10" x="-15.726" y="36.42" transform="matrix(-0.474938, 0.880019, -0.915053, -0.403334, 85.654895, 39.380940)" width="90" height="20" style="fill: rgb(140, 153, 121); fill-opacity: 1;" class="fills"/><rect rx="10" ry="10" x="-.85" y="36.22" transform="matrix(0.474938, 0.880019, -0.915053, 0.403334, 57.599387, 1.924939)" width="60" height="20" style="fill: rgb(140, 153, 121); fill-opacity: 1;" class="fills"/></g></g></svg>